<?xml version="1.0" encoding="UTF-8"?>
<svg id="Layer_1" data-name="Layer 1" xmlns="http://www.w3.org/2000/svg" viewBox="0 0 1000 211.15">
  <defs>
    <style>
      .cls-1 {
        font-family: Impact, Impact;
        font-size: 63.61px;
      }

      .cls-1, .cls-2 {
        fill: #fff;
      }

      .cls-3 {
        letter-spacing: -.02em;
      }

      .cls-2 {
        stroke-width: 0px;
      }
    </style>
  </defs>
  <g>
    <path class="cls-2" d="m52.08,45.39l53.15,29.68,53.14-29.68H52.08Zm49.91,115.7v-79.56l-55.01-30.7,55.01,110.26Zm6.46,0v-79.56l55.01-30.7-55.01,110.26Zm75.94-82.05c-1.78,0-2.66.46-2.66,1.37s.89,1.33,2.66,1.33h13.34c7.12,0,10.67,3.6,10.67,10.8,0,9-4.45,13.5-13.34,13.5h-24.01v-10.8h24.01c1.78,0,2.66-.41,2.66-1.24,0-.97-.89-1.46-2.66-1.46h-10.67c-8.89,0-13.34-3.6-13.34-10.8,0-9,4.45-13.5,13.34-13.5h24.01v10.81h-24.01s0,0,0,0Zm26.69-10.8h37.36v10.8h-37.36v-10.8Zm0,13.5h37.36v10.8h-37.36v-10.8Zm0,24.31v-10.8h37.36v10.8h-37.36Zm40.02-18.9c0-12.61,6.23-18.91,18.68-18.91s18.68,5.8,18.68,17.39h-10.67c0-4.4-2.67-6.59-8-6.59s-8,2.7-8,8.1,2.67,8.1,8,8.1,8-2.23,8-6.7h10.67c0,11.67-6.23,17.5-18.68,17.5-12.46,0-18.68-6.3-18.68-18.9h0Zm56.04,5.39h-5.34v13.51h-10.67v-37.81h24.01c8.89,0,13.34,4.5,13.34,13.5,0,4.97-2.11,8.23-6.35,9.78l22.36,22.63h-16.01s-21.35-21.61-21.35-21.61Zm-5.34-13.5v2.7h13.34c1.78,0,2.67-.44,2.67-1.33s-.89-1.38-2.66-1.38h-13.34s0,0,0,0Z"/>
    <path class="cls-2" d="m331.16,68.24h37.36v10.8h-37.36v-10.8Zm0,13.5h37.36v10.8h-37.36v-10.8Zm0,24.31v-10.8h37.36v10.8h-37.36Zm40.03-37.81h37.36v10.8h-13.34v27.01h-10.67v-27.01h-13.34s0-10.8,0-10.8Zm-80.05,49.14h10.67v27.01h26.68v10.8h-37.35v-37.82h0Zm40.02,37.82v-18.91c0-12.6,6.23-18.91,18.68-18.91s18.68,6.31,18.68,18.91v18.91h-10.67v-8.1h-16.01v8.1h-10.68Zm26.68-18.91c0-5.4-2.66-8.1-8-8.1s-8,2.7-8,8.1h16.01,0Zm13.35,18.91v-37.82h24.01c8.89,0,13.34,4.51,13.34,13.51,0,3.6-1.78,5.4-5.34,5.4,3.55,0,5.34,1.8,5.34,5.4,0,9-4.45,13.51-13.34,13.51h-24.01s0,0,0,0Zm24.01-24.31c1.78,0,2.66-.45,2.66-1.35s-.89-1.35-2.66-1.35h-13.34v2.7h13.34Zm0,13.5c1.78,0,2.66-.45,2.66-1.35s-.89-1.35-2.66-1.35h-13.34v2.7h13.34Z"/>
  </g>
  <rect class="cls-2" x="458.33" y="16.99" width="8.33" height="172.5"/>
  <text class="cls-1" transform="translate(515.36 133.21)"><tspan x="0" y="0">OFFICIAL </tspan><tspan class="cls-3" x="224.96" y="0">P</tspan><tspan x="255.3" y="0">ARTNER</tspan></text>
</svg>